<svg width="64" height="66" viewBox="0 0 64 66" fill="none" xmlns="http://www.w3.org/2000/svg">
<path d="M49.735 43.3674C46.8088 48.3349 41.7554 52.2964 36.1726 54.2689C30.5912 56.2409 24.596 56.1894 19.724 53.3196C14.8521 50.4498 11.9007 45.2311 10.9196 39.3935C9.93831 33.5544 10.9533 27.2139 13.8794 22.2465C16.8055 17.279 21.859 13.3175 27.4418 11.345C33.0232 9.37298 39.0184 9.42444 43.8903 12.2943C48.7622 15.1641 51.7136 20.3827 52.6947 26.2204C53.676 32.0595 52.6611 38.4 49.735 43.3674Z" stroke="#331B3B" stroke-opacity="0.64" stroke-width="2"/>
<path fill-rule="evenodd" clip-rule="evenodd" d="M33.6284 42.8071V33.8071H36.3608L36.8071 29.8071H33.6284V27.8589C33.6284 26.8289 33.6547 25.8071 35.094 25.8071H36.5518V22.9473C36.5518 22.9043 35.2996 22.8071 34.0328 22.8071C31.3871 22.8071 29.7305 24.4643 29.7305 27.5073V29.8071H26.8071V33.8071H29.7305V42.8071H33.6284Z" fill="black"/>
</svg>
