<svg width="44.799988" height="39.180664" viewBox="0 0 44.8 39.1807" fill="none" xmlns="http://www.w3.org/2000/svg" xmlns:xlink="http://www.w3.org/1999/xlink">
	<desc>
			Created with Pixso.
	</desc>
	<defs/>
	<path id="Vector" d="M34.8128 39.1807L44.8 18.1084L44.8 0L24.3856 0L24.3856 19.2061L32.1776 19.2061L24.3856 39.1807L34.8128 39.1807ZM27.4336 16.1582L27.4336 3.0498L41.7504 3.0498L41.7504 17.4229L32.8816 36.1309L28.8464 36.1309L36.6352 16.1602L27.4336 16.1602L27.4336 16.1582Z" fill="#FDC221" fill-opacity="1.000000" fill-rule="nonzero"/>
	<path id="Vector" d="M10.4272 39.1807L20.4144 18.1084L20.4144 0L0 0L0 19.2061L7.79361 19.2061L0 39.1807L10.4272 39.1807ZM3.048 16.1582L3.048 3.0498L17.3648 3.0498L17.3648 17.4229L8.49759 36.1309L4.4624 36.1309L12.2512 16.1602L3.048 16.1602L3.048 16.1582Z" fill="#FDC221" fill-opacity="1.000000" fill-rule="nonzero"/>
</svg>
