<svg width="412" height="353" viewBox="0 0 412 353" fill="none" xmlns="http://www.w3.org/2000/svg">
<path d="M411.284 170.513C411.335 171.828 411.369 173.146 411.386 174.468L410.386 174.481C410.395 175.138 410.399 175.795 410.399 176.454C410.399 177.112 410.395 177.77 410.386 178.427L411.386 178.439C411.369 179.762 411.335 181.08 411.284 182.395L410.285 182.356C410.235 183.665 410.167 184.971 410.083 186.272L411.081 186.336C410.996 187.656 410.894 188.973 410.775 190.285L409.78 190.195C409.661 191.499 409.527 192.798 409.376 194.094L410.369 194.21C410.216 195.523 410.046 196.832 409.859 198.137L408.869 197.996C408.683 199.293 408.481 200.585 408.263 201.873L409.249 202.04C409.028 203.342 408.791 204.639 408.537 205.931L407.556 205.738C407.303 207.025 407.034 208.306 406.749 209.582L407.725 209.8C407.438 211.087 407.134 212.37 406.814 213.646L405.844 213.403C405.526 214.675 405.191 215.941 404.84 217.203L405.804 217.47C405.451 218.74 405.082 220.005 404.697 221.264L403.741 220.972C403.358 222.225 402.959 223.473 402.544 224.715L403.493 225.031C403.076 226.282 402.643 227.526 402.194 228.765L401.254 228.424C400.808 229.656 400.347 230.882 399.871 232.102L400.802 232.466C400.323 233.693 399.828 234.915 399.318 236.131L398.396 235.744C397.889 236.951 397.367 238.152 396.831 239.347L397.743 239.757C397.204 240.959 396.649 242.155 396.08 243.344L395.178 242.912C394.612 244.093 394.032 245.267 393.438 246.435L394.329 246.889C393.732 248.063 393.12 249.23 392.494 250.39L391.614 249.915C390.992 251.068 390.355 252.214 389.705 253.352L390.574 253.848C389.921 254.991 389.255 256.128 388.574 257.257L387.718 256.741C387.041 257.863 386.351 258.978 385.648 260.086L386.492 260.622C385.787 261.733 385.068 262.836 384.336 263.932L383.504 263.376C382.777 264.466 382.036 265.548 381.282 266.623L382.1 267.197C381.345 268.274 380.576 269.343 379.794 270.405L378.989 269.812C378.213 270.867 377.424 271.914 376.622 272.953L377.414 273.564C376.61 274.606 375.794 275.641 374.965 276.667L374.187 276.039C373.365 277.057 372.53 278.068 371.684 279.07L372.448 279.715C371.598 280.722 370.736 281.72 369.862 282.711L369.112 282.049C368.247 283.03 367.37 284.002 366.482 284.967L367.217 285.644C366.324 286.614 365.418 287.575 364.502 288.528L363.781 287.835C362.875 288.777 361.958 289.71 361.03 290.636L361.736 291.344C360.803 292.274 359.859 293.196 358.904 294.109L358.213 293.386C357.268 294.29 356.311 295.185 355.344 296.072L356.02 296.809C355.05 297.699 354.07 298.58 353.079 299.452L352.418 298.702C351.435 299.567 350.441 300.424 349.437 301.272L350.083 302.036C349.078 302.884 348.064 303.724 347.039 304.554L346.41 303.778C345.391 304.604 344.362 305.421 343.323 306.23L343.937 307.019C342.901 307.826 341.855 308.623 340.8 309.412L340.201 308.611C339.151 309.395 338.092 310.171 337.023 310.937L337.606 311.75C336.537 312.516 335.459 313.273 334.373 314.021L333.806 313.197C332.727 313.939 331.639 314.672 330.543 315.396L331.094 316.23C329.995 316.956 328.887 317.672 327.77 318.379L327.235 317.534C326.13 318.233 325.017 318.924 323.895 319.604L324.414 320.459C323.287 321.143 322.151 321.818 321.007 322.483L320.505 321.618C319.375 322.275 318.237 322.922 317.091 323.56L317.577 324.434C316.427 325.074 315.268 325.705 314.102 326.326L313.632 325.443C312.476 326.059 311.313 326.665 310.141 327.261L310.595 328.152C309.423 328.749 308.244 329.335 307.058 329.912L306.621 329.013C305.44 329.587 304.253 330.151 303.058 330.706L303.479 331.613C302.288 332.165 301.09 332.708 299.885 333.241L299.481 332.326C298.282 332.857 297.075 333.377 295.862 333.888L296.25 334.809C295.039 335.319 293.82 335.819 292.595 336.31L292.224 335.381C291.008 335.867 289.786 336.344 288.557 336.81L288.912 337.745C287.68 338.213 286.441 338.67 285.197 339.118L284.858 338.177C283.628 338.619 282.392 339.051 281.15 339.473L281.472 340.42C280.225 340.844 278.971 341.258 277.712 341.661L277.407 340.709C276.161 341.108 274.909 341.497 273.651 341.876L273.939 342.834C272.68 343.213 271.415 343.582 270.145 343.941L269.873 342.979C268.61 343.336 267.342 343.682 266.068 344.019L266.323 344.986C265.054 345.32 263.78 345.645 262.501 345.96L262.262 344.988C260.988 345.302 259.71 345.604 258.426 345.897L258.648 346.872C257.366 347.163 256.079 347.445 254.788 347.716L254.582 346.737C253.301 347.006 252.015 347.265 250.725 347.513L250.914 348.495C249.618 348.744 248.318 348.982 247.014 349.21L246.842 348.225C245.555 348.45 244.264 348.665 242.969 348.869L243.125 349.856C241.824 350.061 240.519 350.256 239.21 350.44L239.071 349.449C237.774 349.632 236.472 349.803 235.167 349.965L235.289 350.957C233.986 351.118 232.678 351.268 231.367 351.408L231.261 350.414C229.955 350.553 228.645 350.682 227.332 350.8L227.422 351.796C226.115 351.914 224.804 352.021 223.49 352.117L223.416 351.12C222.11 351.216 220.8 351.301 219.487 351.376L219.544 352.375C218.228 352.45 216.909 352.514 215.586 352.568L215.545 351.568C214.24 351.621 212.932 351.664 211.621 351.696L211.645 352.695C210.328 352.727 209.009 352.749 207.686 352.76L207.678 351.76C207.019 351.765 206.36 351.768 205.7 351.768C205.44 351.768 205.181 351.767 204.922 351.766C204.521 351.765 204.121 351.763 203.721 351.76L203.713 352.76C202.39 352.749 201.07 352.727 199.754 352.695L199.778 351.696C198.467 351.664 197.159 351.621 195.854 351.568L195.813 352.568C194.49 352.514 193.171 352.45 191.855 352.375L191.912 351.376C190.599 351.301 189.289 351.216 187.983 351.12L187.909 352.117C186.595 352.021 185.284 351.914 183.977 351.796L184.067 350.8C182.754 350.682 181.444 350.553 180.138 350.414L180.032 351.408C178.721 351.268 177.413 351.118 176.11 350.957L176.232 349.965C174.927 349.803 173.625 349.632 172.328 349.449L172.189 350.44C170.88 350.256 169.575 350.061 168.274 349.856L168.43 348.869C167.135 348.665 165.844 348.45 164.557 348.225L164.385 349.21C163.081 348.982 161.781 348.744 160.485 348.495L160.674 347.513C159.384 347.265 158.098 347.006 156.817 346.737L156.611 347.716C155.32 347.445 154.033 347.163 152.751 346.872L152.973 345.897C151.689 345.604 150.411 345.301 149.137 344.988L148.898 345.96C147.619 345.645 146.345 345.32 145.076 344.985L145.331 344.019C144.057 343.682 142.789 343.336 141.526 342.979L141.254 343.941C139.983 343.582 138.719 343.213 137.459 342.834L137.748 341.876C136.49 341.497 135.238 341.108 133.992 340.709L133.687 341.661C132.428 341.258 131.174 340.844 129.927 340.42L130.248 339.473C129.006 339.051 127.77 338.619 126.541 338.177L126.202 339.118C124.957 338.67 123.719 338.213 122.487 337.745L122.841 336.81C121.613 336.344 120.391 335.867 119.175 335.381L118.804 336.31C117.579 335.819 116.36 335.319 115.149 334.809L115.536 333.888C114.324 333.377 113.117 332.857 111.918 332.326L111.514 333.241C110.309 332.708 109.111 332.165 107.92 331.613L108.341 330.706C107.146 330.151 105.959 329.587 104.778 329.013L104.341 329.912C103.155 329.335 101.975 328.749 100.804 328.152L101.258 327.261C100.086 326.665 98.9229 326.059 97.767 325.443L97.297 326.326C96.1307 325.705 94.9723 325.074 93.8218 324.434L94.3081 323.56C93.1622 322.922 92.0243 322.275 90.8944 321.618L90.3918 322.482C89.248 321.818 88.1124 321.143 86.9851 320.459L87.5039 319.604C86.382 318.924 85.2685 318.233 84.1636 317.534L83.6287 318.379C82.5121 317.672 81.4042 316.956 80.3051 316.23L80.856 315.396C79.7595 314.672 78.6719 313.939 77.5932 313.197L77.0264 314.021C75.9396 313.273 74.8619 312.516 73.7934 311.75L74.3761 310.937C73.3073 310.171 72.2478 309.395 71.1977 308.611L70.5992 309.412C69.5438 308.623 68.4979 307.826 67.4617 307.019L68.076 306.23C67.0373 305.421 66.0083 304.604 64.9893 303.778L64.3595 304.554C63.3351 303.724 62.3207 302.884 61.3164 302.036L61.9618 301.272C60.9579 300.424 59.9643 299.567 58.981 298.701L58.3203 299.452C57.3293 298.58 56.3488 297.699 55.3789 296.809L56.0549 296.072C55.0878 295.185 54.1314 294.29 53.1859 293.386L52.4948 294.109C51.5398 293.196 50.5957 292.274 49.6628 291.344L50.3688 290.636C49.4406 289.71 48.5235 288.777 47.6177 287.835L46.897 288.528C45.9805 287.575 45.0755 286.614 44.182 285.644L44.9175 284.966C44.0289 284.002 43.1519 283.03 42.2867 282.049L41.5369 282.711C40.663 281.72 39.8011 280.722 38.9512 279.715L39.7153 279.07C38.8688 278.068 38.0344 277.057 37.2123 276.039L36.4343 276.667C35.6054 275.641 34.789 274.606 33.9851 273.564L34.7769 272.953C33.9753 271.914 33.1862 270.867 32.4099 269.812L31.6046 270.405C30.8231 269.343 30.0544 268.274 29.2988 267.197L30.1174 266.623C29.3633 265.548 28.6223 264.466 27.8946 263.376L27.0631 263.932C26.3311 262.836 25.6124 261.733 24.9073 260.622L25.7515 260.086C25.0478 258.978 24.3578 257.863 23.6814 256.741L22.8249 257.257C22.1445 256.128 21.4778 254.991 20.8252 253.848L21.6936 253.352C21.0435 252.213 20.4074 251.068 19.7855 249.915L18.9054 250.39C18.2792 249.23 17.6673 248.063 17.0698 246.889L17.961 246.435C17.3667 245.267 16.7867 244.093 16.2214 242.912L15.3195 243.344C14.7501 242.155 14.1955 240.959 13.6558 239.757L14.568 239.347C14.0316 238.152 13.51 236.951 13.0034 235.744L12.0813 236.131C11.5713 234.915 11.0765 233.693 10.5969 232.466L11.5284 232.102C11.0519 230.882 10.5907 229.656 10.1449 228.424L9.20456 228.765C8.75621 227.526 8.32337 226.282 7.90623 225.031L8.85482 224.715C8.44035 223.473 8.04148 222.225 7.65841 220.972L6.70208 221.264C6.31723 220.005 5.94822 218.74 5.59522 217.47L6.5587 217.202C6.20815 215.941 5.87352 214.675 5.55499 213.403L4.58496 213.646C4.26507 212.369 3.96131 211.087 3.67387 209.8L4.64983 209.582C4.36476 208.306 4.09585 207.024 3.8433 205.738L2.86204 205.931C2.6083 204.639 2.37096 203.342 2.15021 202.04L3.13613 201.873C2.91768 200.585 2.71558 199.293 2.53002 197.996L1.5401 198.137C1.35342 196.832 1.18336 195.523 1.03012 194.21L2.02339 194.094C1.87224 192.798 1.73756 191.499 1.61954 190.195L0.623612 190.285C0.504808 188.973 0.402766 187.656 0.31767 186.336L1.3156 186.272C1.23171 184.97 1.1644 183.665 1.11383 182.356L0.11458 182.395C0.063789 181.08 0.0297948 179.761 0.0127755 178.439L1.01269 178.427C1.00424 177.77 1 177.112 1 176.454C1 175.795 1.00424 175.138 1.01269 174.481L0.0127764 174.468C0.0297963 173.146 0.063791 171.828 0.114582 170.513L1.11384 170.551C1.1644 169.242 1.23171 167.937 1.3156 166.636L0.317674 166.571C0.402772 165.251 0.504814 163.935 0.623618 162.622L1.61954 162.713C1.73757 161.409 1.87225 160.109 2.02339 158.814L1.03013 158.698C1.18337 157.384 1.35343 156.075 1.54011 154.77L2.53003 154.912C2.71559 153.615 2.91769 152.322 3.13614 151.034L2.15022 150.867C2.37098 149.566 2.60831 148.269 2.86205 146.977L3.84331 147.169C4.09587 145.883 4.36477 144.602 4.64984 143.325L3.67389 143.107C3.96132 141.82 4.26508 140.538 4.58498 139.261L5.555 139.504C5.87353 138.233 6.20817 136.966 6.55871 135.705L5.59524 135.437C5.94823 134.167 6.31725 132.903 6.70211 131.644L7.65843 131.936C8.0415 130.683 8.44037 129.435 8.85484 128.193L7.90625 127.876C8.32339 126.626 8.75624 125.381 9.20458 124.143L10.1449 124.483C10.5907 123.251 11.0519 122.026 11.5284 120.806L10.597 120.442C11.0765 119.214 11.5713 117.993 12.0813 116.777L13.0035 117.164C13.51 115.957 14.0316 114.755 14.5681 113.561L13.6558 113.151C14.1955 111.949 14.7501 110.753 15.3195 109.564L16.2215 109.995C16.7868 108.815 17.3667 107.64 17.961 106.472L17.0698 106.019C17.6673 104.845 18.2792 103.678 18.9055 102.517L19.7855 102.992C20.4074 101.84 21.0435 100.694 21.6937 99.5552L20.8252 99.0594C21.4779 97.9162 22.1445 96.7799 22.825 95.6508L23.6815 96.1669C24.3578 95.0446 25.0479 93.9294 25.7515 92.8213L24.9073 92.2852C25.6125 91.1748 26.3311 90.0716 27.0631 88.9758L27.8946 89.5312C28.6224 88.4418 29.3633 87.3596 30.1174 86.285L29.2988 85.7106C30.0545 84.6337 30.8231 83.5643 31.6046 82.5026L32.41 83.0954C33.1863 82.0408 33.9753 80.9937 34.777 79.9544L33.9851 79.3437C34.789 78.3014 35.6055 77.2669 36.4343 76.2403L37.2124 76.8685C38.0345 75.8503 38.8689 74.8398 39.7153 73.8373L38.9513 73.1922C39.8011 72.1857 40.6631 71.1872 41.5369 70.1968L42.2868 70.8585C43.152 69.8779 44.0289 68.9054 44.9175 67.941L44.1821 67.2634C45.0755 66.2938 45.9805 65.3325 46.897 64.3795L47.6178 65.0726C48.5236 64.1308 49.4407 63.1971 50.3688 62.2718L49.6628 61.5636C50.5958 60.6336 51.5399 59.7119 52.4949 58.7989L53.1859 59.5217C54.1315 58.6177 55.0879 57.7221 56.0549 56.8351L55.379 56.0982C56.3489 55.2086 57.3294 54.3276 58.3203 53.4554L58.981 54.2061C59.9643 53.3406 60.958 52.4838 61.9618 51.6357L61.3165 50.8718C62.3208 50.0234 63.3352 49.1839 64.3596 48.3532L64.9894 49.1299C66.0084 48.3036 67.0373 47.4861 68.076 46.6777L67.4618 45.8886C68.498 45.082 69.5439 44.2845 70.5992 43.496L71.1978 44.297C72.2478 43.5125 73.3074 42.7369 74.3762 41.9705L73.7935 41.1578C74.862 40.3917 75.9397 39.6346 77.0264 38.8868L77.5933 39.7107C78.672 38.9685 79.7596 38.2354 80.856 37.5117L80.3052 36.6771C81.4043 35.9516 82.5122 35.2354 83.6288 34.5286L84.1636 35.3736C85.2686 34.6742 86.3821 33.984 87.504 33.3033L86.9852 32.4484C88.1124 31.7644 89.2481 31.0899 90.3919 30.4251L90.8944 31.2896C92.0243 30.6329 93.1623 29.9855 94.3082 29.3477L93.8219 28.4739C94.9724 27.8336 96.1308 27.2028 97.297 26.5818L97.7671 27.4644C98.9229 26.8489 100.086 26.2429 101.258 25.6467L100.804 24.7555C101.976 24.159 103.155 23.5722 104.341 22.9952L104.779 23.8945C105.959 23.3205 107.146 22.7563 108.341 22.202L107.92 21.2949C109.111 20.7424 110.309 20.1997 111.514 19.6669L111.918 20.5814C113.117 20.0511 114.324 19.5305 115.537 19.02L115.149 18.0983C116.36 17.5882 117.579 17.0881 118.804 16.598L119.175 17.5265C120.391 17.0402 121.613 16.5638 122.842 16.0975L122.487 15.1626C123.719 14.6948 124.958 14.2371 126.202 13.7896L126.541 14.7307C127.771 14.2885 129.007 13.8564 130.249 13.4344L129.927 12.4875C131.174 12.0636 132.428 11.6499 133.687 11.2464L133.992 12.1987C135.239 11.7994 136.49 11.4103 137.748 11.0313L137.46 10.0739C138.719 9.69443 139.984 9.32522 141.254 8.96632L141.526 9.92865C142.789 9.57181 144.057 9.22521 145.331 8.88897L145.076 7.92209C146.345 7.58711 147.619 7.26238 148.898 6.94799L149.137 7.9191C150.411 7.60608 151.689 7.30336 152.973 7.01106L152.751 6.03602C154.033 5.74417 155.32 5.46267 156.612 5.19162L156.817 6.1703C158.098 5.90146 159.384 5.64295 160.674 5.39487L160.485 4.41285C161.781 4.1638 163.081 3.92523 164.385 3.69724L164.557 4.68231C165.844 4.45748 167.135 4.24299 168.43 4.03894L168.274 3.05112C169.575 2.8462 170.88 2.65177 172.189 2.46793L172.328 3.45821C173.625 3.27599 174.927 3.10422 176.233 2.943L176.11 1.95054C177.413 1.78958 178.721 1.6391 180.032 1.49919L180.138 2.49355C181.444 2.35423 182.754 2.22545 184.067 2.1073L183.977 1.11132C185.285 0.993736 186.595 0.886644 187.909 0.790144L187.983 1.78746C189.289 1.69154 190.599 1.60613 191.912 1.53133L191.855 0.532949C193.171 0.457985 194.491 0.393631 195.813 0.339984L195.854 1.33916C197.159 1.28623 198.467 1.24377 199.778 1.21187L199.754 0.212161C201.071 0.180128 202.39 0.1587 203.713 0.147974L203.721 1.14794C204.38 1.1426 205.039 1.13992 205.7 1.13992C206.36 1.13992 207.019 1.1426 207.678 1.14794L207.686 0.147974C209.009 0.158701 210.329 0.180129 211.645 0.212163L211.621 1.21187C212.932 1.24377 214.24 1.28623 215.545 1.33916L215.586 0.339986C216.909 0.393634 218.228 0.457989 219.544 0.532953L219.487 1.53133C220.8 1.60614 222.11 1.69155 223.416 1.78746L223.49 0.790149C224.804 0.886649 226.115 0.993742 227.422 1.11133L227.332 2.10731C228.645 2.22545 229.955 2.35424 231.261 2.49356L231.367 1.4992C232.678 1.6391 233.986 1.78959 235.289 1.95055L235.167 2.94301C236.472 3.10423 237.774 3.276 239.071 3.45822L239.21 2.46794C240.519 2.65178 241.824 2.84621 243.125 3.05113L242.969 4.03895C244.264 4.243 245.555 4.45749 246.842 4.68232L247.014 3.69725C248.318 3.92524 249.618 4.16382 250.914 4.41287L250.725 5.39489C252.015 5.64297 253.301 5.90148 254.582 6.17032L254.788 5.19164C256.079 5.46269 257.366 5.74419 258.648 6.03604L258.426 7.01109C259.71 7.30339 260.989 7.6061 262.262 7.91912L262.501 6.94802C263.78 7.2624 265.054 7.58713 266.323 7.92211L266.068 8.88899C267.342 9.22523 268.61 9.57183 269.873 9.92868L270.145 8.96635C271.416 9.32525 272.68 9.69446 273.94 10.0739L273.651 11.0314C274.909 11.4103 276.161 11.7995 277.407 12.1987L277.712 11.2464C278.971 11.6499 280.225 12.0636 281.472 12.4876L281.151 13.4344C282.393 13.8564 283.629 14.2886 284.858 14.7307L285.197 13.7897C286.442 14.2372 287.68 14.6949 288.912 15.1626L288.558 16.0975C289.786 16.5638 291.008 17.0402 292.224 17.5265L292.595 16.598C293.82 17.0881 295.039 17.5883 296.251 18.0983L295.863 19.02C297.076 19.5306 298.282 20.0511 299.481 20.5815L299.885 19.6669C301.09 20.1997 302.288 20.7424 303.479 21.2949L303.058 22.202C304.253 22.7563 305.44 23.3206 306.621 23.8945L307.058 22.9952C308.244 23.5722 309.424 24.1591 310.595 24.7556L310.142 25.6467C311.313 26.243 312.476 26.8489 313.632 27.4644L314.102 26.5818C315.268 27.2028 316.427 27.8336 317.577 28.474L317.091 29.3477C318.237 29.9855 319.375 30.6329 320.505 31.2897L321.007 30.4251C322.151 31.09 323.287 31.7645 324.414 32.4484L323.895 33.3034C325.017 33.9841 326.131 34.6742 327.236 35.3736L327.77 34.5287C328.887 35.2354 329.995 35.9516 331.094 36.6771L330.543 37.5117C331.64 38.2355 332.727 38.9685 333.806 39.7107L334.373 38.8869C335.459 39.6347 336.537 40.3917 337.606 41.1579L337.023 41.9706C338.092 42.737 339.151 43.5125 340.201 44.2971L340.8 43.496C341.855 44.2845 342.901 45.0821 343.937 45.8886L343.323 46.6778C344.362 47.4862 345.391 48.3037 346.41 49.13L347.04 48.3533C348.064 49.1839 349.078 50.0235 350.083 50.8719L349.437 51.6358C350.441 52.4838 351.435 53.3406 352.418 54.2061L353.079 53.4555C354.07 54.3277 355.05 55.2087 356.02 56.0983L355.344 56.8352C356.311 57.7222 357.268 58.6178 358.213 59.5218L358.904 58.799C359.859 59.712 360.803 60.6336 361.736 61.5637L361.03 62.2719C361.958 63.1972 362.876 64.1308 363.781 65.0727L364.502 64.3795C365.419 65.3325 366.324 66.2939 367.217 67.2635L366.482 67.9411C367.37 68.9055 368.247 69.878 369.112 70.8585L369.862 70.1969C370.736 71.1872 371.598 72.1858 372.448 73.1923L371.684 73.8374C372.53 74.8399 373.365 75.8503 374.187 76.8686L374.965 76.2404C375.794 77.267 376.61 78.3015 377.414 79.3437L376.622 79.9545C377.424 80.9938 378.213 82.0409 378.989 83.0955L379.794 82.5027C380.576 83.5644 381.345 84.6338 382.1 85.7107L381.282 86.2851C382.036 87.3597 382.777 88.4419 383.504 89.5313L384.336 88.9758C385.068 90.0717 385.787 91.1749 386.492 92.2853L385.648 92.8214C386.351 93.9294 387.041 95.0447 387.718 96.167L388.574 95.6508C389.255 96.78 389.921 97.9163 390.574 99.0595L389.705 99.5553C390.356 100.694 390.992 101.84 391.614 102.992L392.494 102.517C393.12 103.678 393.732 104.845 394.329 106.019L393.438 106.473C394.032 107.64 394.612 108.815 395.178 109.996L396.08 109.564C396.649 110.753 397.204 111.949 397.743 113.151L396.831 113.561C397.367 114.756 397.889 115.957 398.396 117.164L399.318 116.777C399.828 117.993 400.323 119.214 400.802 120.442L399.871 120.806C400.347 122.026 400.808 123.252 401.254 124.483L402.194 124.143C402.643 125.382 403.076 126.626 403.493 127.876L402.544 128.193C402.959 129.435 403.358 130.683 403.741 131.936L404.697 131.644C405.082 132.903 405.451 134.167 405.804 135.437L404.84 135.705C405.191 136.966 405.526 138.233 405.844 139.504L406.814 139.261C407.134 140.538 407.438 141.82 407.725 143.107L406.749 143.325C407.034 144.602 407.303 145.883 407.556 147.169L408.537 146.977C408.791 148.269 409.028 149.566 409.249 150.867L408.263 151.035C408.481 152.323 408.683 153.615 408.869 154.912L409.859 154.77C410.046 156.075 410.216 157.384 410.369 158.698L409.376 158.814C409.527 160.109 409.661 161.409 409.78 162.713L410.775 162.623C410.894 163.935 410.996 165.251 411.081 166.571L410.083 166.636C410.167 167.937 410.235 169.242 410.285 170.551L411.284 170.513Z" stroke="black" stroke-width="2" stroke-dasharray="4 4"/>
</svg>
