<svg width="48" height="48" viewBox="0 0 48 48" fill="none" xmlns="http://www.w3.org/2000/svg">
<rect width="48" height="48" rx="24" fill="white"/>
<path d="M34.0004 28.9196V31.9196C34.0016 32.1981 33.9445 32.4738 33.8329 32.729C33.7214 32.9841 33.5577 33.2132 33.3525 33.4015C33.1473 33.5897 32.905 33.7331 32.6412 33.8223C32.3774 33.9115 32.0978 33.9447 31.8204 33.9196C28.7433 33.5852 25.7874 32.5338 23.1904 30.8496C20.7743 29.3143 18.7258 27.2658 17.1904 24.8496C15.5004 22.2408 14.4487 19.2706 14.1204 16.1796C14.0954 15.9031 14.1283 15.6244 14.2169 15.3612C14.3055 15.0981 14.448 14.8563 14.6352 14.6512C14.8224 14.4462 15.0502 14.2823 15.3042 14.1701C15.5582 14.0579 15.8328 13.9999 16.1104 13.9996H19.1104C19.5957 13.9948 20.0662 14.1667 20.4342 14.4831C20.8022 14.7996 21.0425 15.2391 21.1104 15.7196C21.237 16.6797 21.4719 17.6223 21.8104 18.5296C21.945 18.8875 21.9741 19.2765 21.8943 19.6505C21.8146 20.0245 21.6293 20.3677 21.3604 20.6396L20.0904 21.9096C21.514 24.4132 23.5869 26.4861 26.0904 27.9096L27.3604 26.6396C27.6323 26.3707 27.9756 26.1855 28.3495 26.1057C28.7235 26.0259 29.1125 26.0551 29.4704 26.1896C30.3777 26.5282 31.3204 26.763 32.2804 26.8896C32.7662 26.9581 33.2098 27.2028 33.527 27.5771C33.8441 27.9514 34.0126 28.4292 34.0004 28.9196Z" fill="#57C401"/>
</svg>
