<svg width="64" height="66" viewBox="0 0 64 66" fill="none" xmlns="http://www.w3.org/2000/svg">
<path d="M49.735 43.3674C46.8088 48.3349 41.7554 52.2964 36.1726 54.2689C30.5912 56.2409 24.596 56.1894 19.724 53.3196C14.8521 50.4498 11.9007 45.2311 10.9196 39.3935C9.93831 33.5544 10.9533 27.2139 13.8794 22.2465C16.8055 17.279 21.859 13.3175 27.4418 11.345C33.0232 9.37298 39.0184 9.42444 43.8903 12.2943C48.7622 15.1641 51.7136 20.3827 52.6947 26.2204C53.676 32.0595 52.6611 38.4 49.735 43.3674Z" stroke="#331B3B" stroke-opacity="0.64" stroke-width="2"/>
<g clip-path="url(#clip0_1425_27)">
<path d="M32.7067 23.1273C35.8614 23.1273 36.2317 23.1414 37.4786 23.1977C38.6317 23.2492 39.2552 23.4414 39.6724 23.6055C40.2255 23.8211 40.6192 24.0742 41.0317 24.4867C41.4442 24.8992 41.702 25.293 41.913 25.8461C42.0724 26.2633 42.2692 26.8867 42.3208 28.0398C42.3771 29.2867 42.3911 29.657 42.3911 32.8117C42.3911 35.9664 42.3771 36.3367 42.3208 37.5836C42.2692 38.7367 42.077 39.3602 41.913 39.7773C41.6974 40.3305 41.4442 40.7242 41.0317 41.1367C40.6192 41.5492 40.2255 41.807 39.6724 42.018C39.2552 42.1773 38.6317 42.3742 37.4786 42.4258C36.2317 42.482 35.8614 42.4961 32.7067 42.4961C29.5521 42.4961 29.1817 42.482 27.9349 42.4258C26.7817 42.3742 26.1583 42.182 25.7411 42.018C25.188 41.8023 24.7942 41.5492 24.3817 41.1367C23.9692 40.7242 23.7114 40.3305 23.5005 39.7773C23.3411 39.3602 23.1442 38.7367 23.0927 37.5836C23.0364 36.3367 23.0224 35.9664 23.0224 32.8117C23.0224 29.657 23.0364 29.2867 23.0927 28.0398C23.1442 26.8867 23.3364 26.2633 23.5005 25.8461C23.7161 25.293 23.9692 24.8992 24.3817 24.4867C24.7942 24.0742 25.188 23.8164 25.7411 23.6055C26.1583 23.4461 26.7817 23.2492 27.9349 23.1977C29.1817 23.1367 29.5521 23.1273 32.7067 23.1273ZM32.7067 20.9992C29.5005 20.9992 29.0974 21.0133 27.8364 21.0695C26.5802 21.1258 25.7224 21.3273 24.9724 21.618C24.1942 21.918 23.538 22.3258 22.8817 22.982C22.2255 23.6383 21.8224 24.2992 21.5177 25.0727C21.2271 25.8227 21.0255 26.6805 20.9692 27.9414C20.913 29.1977 20.8989 29.6008 20.8989 32.807C20.8989 36.0133 20.913 36.4164 20.9692 37.6773C21.0255 38.9336 21.2271 39.7914 21.5177 40.5461C21.8177 41.3242 22.2255 41.9805 22.8817 42.6367C23.538 43.293 24.1989 43.6961 24.9724 44.0008C25.7224 44.2914 26.5802 44.493 27.8411 44.5492C29.1021 44.6055 29.5005 44.6195 32.7114 44.6195C35.9224 44.6195 36.3208 44.6055 37.5817 44.5492C38.838 44.493 39.6958 44.2914 40.4505 44.0008C41.2286 43.7008 41.8849 43.293 42.5411 42.6367C43.1974 41.9805 43.6005 41.3195 43.9052 40.5461C44.1958 39.7961 44.3974 38.9383 44.4536 37.6773C44.5099 36.4164 44.5239 36.018 44.5239 32.807C44.5239 29.5961 44.5099 29.1977 44.4536 27.9367C44.3974 26.6805 44.1958 25.8227 43.9052 25.068C43.6052 24.2898 43.1974 23.6336 42.5411 22.9773C41.8849 22.3211 41.2239 21.918 40.4505 21.6133C39.7005 21.3227 38.8427 21.1211 37.5817 21.0648C36.3161 21.0133 35.913 20.9992 32.7067 20.9992Z" fill="black"/>
<path d="M32.7067 26.7414C29.3599 26.7414 26.6411 29.4555 26.6411 32.807C26.6411 36.1586 29.3599 38.8727 32.7067 38.8727C36.0536 38.8727 38.7724 36.1539 38.7724 32.807C38.7724 29.4602 36.0536 26.7414 32.7067 26.7414ZM32.7067 36.7445C30.5317 36.7445 28.7692 34.982 28.7692 32.807C28.7692 30.632 30.5317 28.8695 32.7067 28.8695C34.8817 28.8695 36.6442 30.632 36.6442 32.807C36.6442 34.982 34.8817 36.7445 32.7067 36.7445Z" fill="black"/>
<path d="M39.0113 27.918C39.7932 27.918 40.427 27.2842 40.427 26.5024C40.427 25.7206 39.7932 25.0868 39.0113 25.0868C38.2295 25.0868 37.5957 25.7206 37.5957 26.5024C37.5957 27.2842 38.2295 27.918 39.0113 27.918Z" fill="black"/>
</g>
<defs>
<clipPath id="clip0_1425_27">
<rect width="24" height="24" fill="white" transform="translate(20.7065 20.8071)"/>
</clipPath>
</defs>
</svg>
